<svg width="48" height="48" viewBox="0 0 48 48" fill="none" xmlns="http://www.w3.org/2000/svg">
<path d="M47.7726 23.1226L43.9791 19.3826C43.0228 18.4426 41.9072 17.6746 40.6827 17.1133C41.4214 15.5249 41.8046 13.798 41.806 12.0505V6.87012C41.806 6.44859 41.4594 6.10684 41.0318 6.10684H35.7775C34.0048 6.10789 32.2531 6.48533 30.6416 7.21359C30.0723 6.00627 29.2934 4.90639 28.34 3.96355L24.5466 0.223474C24.2443 -0.0744914 23.7542 -0.0744914 23.4519 0.223474L19.6584 3.96355C18.705 4.90639 17.9261 6.00627 17.3568 7.21359C15.7458 6.48561 13.9947 6.10808 12.2225 6.10684H6.96817C6.54063 6.10684 6.194 6.44859 6.194 6.87012V12.0505C6.19506 13.7982 6.57789 15.5252 7.31655 17.1141C6.092 17.6754 4.97642 18.4433 4.02012 19.3833L0.226664 23.1234C-0.0755545 23.4215 -0.0755545 23.9046 0.226664 24.2027L4.02012 27.9427C4.97642 28.8827 6.092 29.6507 7.31655 30.212C6.57818 31.8004 6.19525 33.5268 6.194 35.2741V40.4544C6.194 40.876 6.54063 41.2177 6.96817 41.2177H12.2225C13.9952 41.2167 15.7469 40.8392 17.3584 40.111C17.9277 41.3183 18.7066 42.4182 19.66 43.361L23.4534 47.1011C23.7557 47.399 24.2458 47.399 24.5481 47.1011L28.3416 43.361C29.295 42.4182 30.0739 41.3183 30.6432 40.111C32.2542 40.839 34.0053 41.2165 35.7775 41.2177H41.0318C41.4594 41.2177 41.806 40.876 41.806 40.4544V35.2741C41.8049 33.5263 41.4221 31.7993 40.6834 30.2105C41.908 29.6492 43.0236 28.8812 43.9799 27.9412L47.7733 24.2012C48.0749 23.903 48.0745 23.4204 47.7726 23.1226ZM31.2114 8.63635C32.6408 7.97687 34.1995 7.63454 35.7775 7.6334H40.2577V12.0505C40.257 13.6068 39.91 15.1441 39.2412 16.5538C38.1169 16.2066 36.9456 16.0298 35.7674 16.0295H35.4578C33.8304 16.029 32.2211 16.3671 30.7353 17.0217C31.3993 15.5568 31.7422 13.9702 31.7417 12.3657V12.0604C31.7419 10.8992 31.5631 9.74463 31.2114 8.63635ZM35.4578 17.556H35.7674C36.6819 17.5578 37.5919 17.6822 38.4724 17.9255C38.0665 18.53 37.5995 19.0926 37.0789 19.6047L36.9148 19.7665C34.8862 21.7767 32.1265 22.9035 29.2504 22.8959L25.8689 22.899L28.34 20.4626C30.2237 18.5953 32.7867 17.5487 35.4578 17.556ZM30.1934 12.0604V12.3657C30.2007 14.999 29.1391 17.5257 27.2453 19.3826L24.7742 21.8197V18.4819C24.7665 15.6463 25.9094 12.9254 27.9483 10.9254L28.1124 10.7636C28.6318 10.2503 29.2024 9.79004 29.8156 9.3897C30.0638 10.259 30.1909 11.1575 30.1934 12.0604ZM20.7547 5.04282L24 1.84315L27.2453 5.04282C28.0923 5.88071 28.78 6.86153 29.276 7.93871C28.458 8.43284 27.7007 9.01856 27.0193 9.68433L26.8552 9.84614C25.5904 11.0939 24.6162 12.5981 24 14.2541C23.3839 12.5983 22.4099 11.0946 21.1456 9.84691L20.9815 9.68509C20.2998 9.01904 19.5423 8.43303 18.724 7.93871C19.22 6.86162 19.9077 5.88081 20.7547 5.04282ZM17.8066 12.0604C17.8084 11.1588 17.9345 10.2617 18.1813 9.39352C18.7945 9.79377 19.3651 10.2541 19.8845 10.7674L20.0486 10.9292C22.0875 12.9292 23.2304 15.6501 23.2227 18.4857V21.8235L20.7516 19.3871C18.8578 17.5287 17.7973 15.0001 17.8066 12.3657V12.0604ZM19.6592 20.4626L22.1311 22.899H18.7457C15.8696 22.9065 13.1099 21.7797 11.0814 19.7695L10.9172 19.6077C10.3966 19.0957 9.92977 18.533 9.52372 17.9285C10.4054 17.6839 11.3167 17.5586 12.2326 17.556H12.5422C15.2131 17.5489 17.7758 18.5955 19.6592 20.4626ZM7.74234 7.6334H12.2225C13.801 7.63406 15.3602 7.9762 16.7901 8.63558C16.4379 9.74406 16.2585 10.8988 16.2583 12.0604V12.3657C16.2578 13.9702 16.6007 15.5568 17.2647 17.0217C15.7789 16.3671 14.1696 16.029 12.5422 16.0295H12.2326C11.0547 16.0294 9.88371 16.2056 8.75961 16.5523C8.09072 15.1431 7.74351 13.6063 7.74234 12.0505V7.6334ZM5.1148 26.8619L1.86946 23.6623L5.1148 20.4626C5.96465 19.6276 6.95946 18.9495 8.05201 18.4605C8.55319 19.267 9.14728 20.0136 9.82255 20.6855L9.98668 20.8473C11.2523 22.0942 12.7779 23.0547 14.4575 23.6623C12.7782 24.2698 11.2529 25.23 9.98745 26.4765L9.82332 26.6383C9.14776 27.3104 8.55339 28.0572 8.05201 28.864C6.95956 28.3751 5.96475 27.697 5.1148 26.8619ZM16.7886 38.6882C15.3593 39.3477 13.8005 39.69 12.2225 39.6912H7.74234V35.2741C7.74302 33.7177 8.09005 32.1805 8.75884 30.7707C9.88313 31.118 11.0544 31.2948 12.2326 31.2951H12.5422C14.1696 31.2956 15.7789 30.9574 17.2647 30.3028C16.6007 31.7677 16.2578 33.3543 16.2583 34.9588V35.2641C16.2582 36.4254 16.437 37.5799 16.7886 38.6882ZM12.5422 29.7685H12.2326C11.3181 29.7666 10.4081 29.6424 9.52759 29.3991C9.93355 28.7946 10.4005 28.2319 10.9211 27.7199L11.0852 27.5581C13.1138 25.5479 15.8735 24.4211 18.7496 24.4286L22.1311 24.4256L19.66 26.8619C17.7764 28.7292 15.2133 29.7759 12.5422 29.7685ZM17.8066 35.2641V34.9588C17.7993 32.3256 18.8609 29.7989 20.7547 27.942L23.2258 25.5048V28.8427C23.2335 31.6782 22.0906 34.3991 20.0517 36.3991L19.8876 36.5609C19.3682 37.0742 18.7976 37.5346 18.1844 37.9348C17.9363 37.0657 17.8092 36.1672 17.8066 35.2641ZM27.2453 42.2817L24 45.4814L20.7547 42.2817C19.9081 41.4449 19.2203 40.4655 18.724 39.3897C19.5422 38.8944 20.2994 38.3073 20.9807 37.6402L21.1448 37.4784C22.4095 36.2306 23.3838 34.7265 24 33.0705C24.6161 34.7262 25.5901 36.23 26.8544 37.4776L27.0185 37.6395C27.7 38.3066 28.4575 38.8936 29.276 39.3889C28.7798 40.465 28.092 41.4447 27.2453 42.2817ZM30.1934 35.2641C30.1915 36.1658 30.0655 37.0629 29.8187 37.931C29.2055 37.5308 28.6349 37.0704 28.1155 36.5571L27.9514 36.3953C25.9125 34.3953 24.7696 31.6744 24.7773 28.8388V25.5048L27.2484 27.9412C29.1412 29.7988 30.2017 32.3257 30.1934 34.9588V35.2641ZM28.3408 26.8619L25.8689 24.4256H29.2543C32.1304 24.418 34.8901 25.5448 36.9186 27.555L37.0828 27.7168C37.6034 28.2289 38.0702 28.7915 38.4763 29.396C37.5946 29.6407 36.6834 29.766 35.7674 29.7685H35.4578C32.787 29.7757 30.2243 28.729 28.3408 26.8619ZM40.2577 39.6912H35.7775C34.199 39.6905 32.6398 39.3483 31.2099 38.689C31.5621 37.5805 31.7415 36.4257 31.7417 35.2641V34.9588C31.7422 33.3543 31.3993 31.7677 30.7353 30.3028C32.2211 30.9574 33.8304 31.2956 35.4578 31.2951H35.7674C36.9453 31.2952 38.1163 31.1189 39.2404 30.7722C39.9093 32.1814 40.2565 33.7182 40.2577 35.2741V39.6912ZM42.8852 26.8619C42.0364 27.6966 41.0431 28.3747 39.9519 28.864C39.4495 28.0573 38.8541 27.3107 38.1774 26.6391L38.0133 26.4773C36.7477 25.2304 35.2221 24.2698 33.5425 23.6623C35.2218 23.0548 36.7471 22.0946 38.0126 20.8481L38.1767 20.6862C38.8533 20.0144 39.4487 19.2675 39.9511 18.4605C41.0423 18.9499 42.0357 19.628 42.8844 20.4626L46.1305 23.6623L42.8852 26.8619Z" fill="#548CFF"/>
</svg>
